<?xml version="1.0" standalone="no"?>
<!DOCTYPE svg PUBLIC "-//W3C//DTD SVG 20010904//EN"
 "http://www.w3.org/TR/2001/REC-SVG-20010904/DTD/svg10.dtd">
<svg version="1.0" xmlns="http://www.w3.org/2000/svg"
 width="50.000000pt" height="50.000000pt" viewBox="0 0 179.000000 123.000000"
 preserveAspectRatio="xMidYMid meet">

<g transform="translate(0.000000,123.000000) scale(0.100000,-0.100000)"
fill="#000000" stroke="none">
<path d="M65 1175 l-25 -24 0 -338 0 -338 63 -35 c34 -19 97 -56 140 -82 43
-26 80 -48 83 -48 2 0 26 -14 52 -30 27 -17 57 -30 66 -30 17 0 18 8 17 143
l0 77 365 0 c399 0 410 1 433 58 8 20 11 113 9 326 l-3 298 -28 24 -28 24
-560 0 -560 0 -24 -25z m709 -271 c10 -4 16 -18 16 -36 0 -27 -2 -29 -32 -26
-26 2 -34 8 -36 27 -5 32 19 48 52 35z m-467 -26 c5 -7 18 -52 27 -99 10 -47
21 -91 25 -97 4 -7 18 30 31 80 31 123 34 130 72 126 23 -2 33 -9 39 -28 4
-14 17 -58 29 -97 11 -40 24 -73 29 -73 4 0 13 28 19 63 7 34 17 79 22 100 10
35 13 37 50 37 22 0 40 -3 40 -8 0 -4 -17 -68 -39 -142 -21 -74 -41 -147 -45
-162 -6 -25 -11 -28 -45 -28 -43 0 -41 -5 -83 153 -6 26 -15 47 -18 47 -3 0
-14 -30 -24 -67 -34 -123 -40 -133 -80 -133 -24 0 -36 5 -40 18 -31 107 -86
305 -86 313 0 14 66 11 77 -3z m623 -42 c0 -18 6 -25 23 -28 33 -5 37 -55 5
-60 -21 -3 -23 -9 -26 -66 -3 -59 -2 -63 23 -72 18 -7 25 -17 25 -35 0 -23 -4
-25 -42 -25 -65 0 -78 18 -78 112 0 71 -2 80 -20 85 -13 4 -20 14 -20 30 0 16
7 27 20 30 13 3 20 14 20 29 0 21 5 24 35 24 30 0 35 -3 35 -24z m-140 -162
l0 -124 -35 0 -35 0 0 123 c0 68 2 126 5 129 3 2 18 3 35 0 l30 -4 0 -124z
m418 100 c18 -20 20 -29 11 -40 -15 -18 -39 -18 -67 2 -25 17 -63 16 -69 -3
-3 -7 14 -17 39 -23 24 -7 58 -19 76 -27 28 -14 32 -21 32 -54 0 -28 -6 -42
-25 -57 -57 -45 -162 -35 -190 18 -8 15 -11 30 -8 34 12 12 61 6 73 -10 17
-19 64 -14 68 7 2 12 -10 20 -45 28 -69 17 -93 36 -93 70 0 16 3 37 6 46 20
51 150 57 192 9z"/>
<path d="M1356 421 c-10 -16 5 -41 24 -41 19 0 30 17 23 38 -5 14 -39 16 -47
3z"/>
<path d="M583 408 c-31 -15 -56 -70 -44 -100 13 -35 34 -49 109 -73 62 -20 67
-24 70 -53 7 -64 -92 -83 -137 -25 -21 26 -51 26 -51 0 0 -25 47 -66 85 -73
41 -7 106 8 130 32 20 20 29 58 21 89 -7 26 -49 52 -121 75 -50 16 -65 27 -65
51 0 52 81 66 132 23 21 -17 34 -22 41 -15 15 15 -11 61 -41 72 -31 12 -102
10 -129 -3z"/>
<path d="M1730 255 c0 -158 1 -165 20 -165 19 0 20 7 20 165 0 158 -1 165 -20
165 -19 0 -20 -7 -20 -165z"/>
<path d="M879 326 c-41 -24 -59 -59 -59 -119 0 -65 23 -100 75 -117 41 -13 92
-1 120 30 42 46 37 145 -9 189 -30 28 -92 36 -127 17z m87 -34 c38 -25 45
-105 13 -146 -44 -56 -119 -16 -119 64 0 65 61 113 106 82z"/>
<path d="M1160 329 c-43 -16 -65 -57 -65 -119 0 -87 54 -140 128 -126 37 7 77
39 77 61 0 21 -27 18 -50 -5 -11 -11 -31 -20 -45 -20 -43 0 -65 33 -65 94 0
45 4 58 22 70 31 22 64 20 88 -4 23 -23 50 -26 50 -6 0 29 -58 67 -98 65 -9 0
-28 -5 -42 -10z"/>
<path d="M1503 320 c-18 -11 -33 -24 -33 -30 0 -19 31 -23 49 -6 12 11 31 16
53 14 27 -2 34 -7 36 -30 3 -28 -1 -31 -73 -43 -52 -9 -75 -30 -75 -70 0 -58
63 -89 121 -59 23 11 34 13 37 5 2 -6 12 -11 23 -11 17 0 19 8 19 96 0 108 -7
127 -51 143 -45 16 -69 14 -106 -9z m113 -135 c4 -8 -1 -27 -11 -41 -13 -20
-23 -25 -52 -22 -50 4 -66 32 -34 59 28 23 89 26 97 4z"/>
<path d="M1360 210 c0 -113 1 -120 20 -120 19 0 20 7 20 120 0 113 -1 120 -20
120 -19 0 -20 -7 -20 -120z"/>
</g>
</svg>
