<svg width="447" height="284" viewBox="0 0 447 284" fill="none" xmlns="http://www.w3.org/2000/svg">
<g clip-path="url(#clip0_491_6404)">
<path d="M310.113 184.814H8.4585V30.698C8.4585 13.7828 22.2413 0 39.1565 0H288.499C305.414 0 319.197 13.7828 319.197 30.698V175.73C319.51 180.742 315.125 184.814 310.113 184.814Z" fill="#1F70F5"/>
<path opacity="0.78" d="M8.4585 184.814L107.757 242.765C112.142 245.271 117.781 242.765 117.781 238.379V184.814" fill="#1F70F5"/>
<path d="M115.901 110.575C111.829 115.587 111.515 120.912 109.949 125.611C106.817 135.322 104.311 145.346 101.178 155.369C98.3592 164.453 92.7208 167.586 83.95 165.08C80.8175 164.14 80.5043 161.948 79.8778 159.755C72.6732 135.322 65.7818 110.889 58.5772 86.4556C57.0109 81.7569 58.5772 80.5039 63.5891 80.1907C72.9864 79.251 77.6851 81.7569 79.2513 92.094C81.7573 107.443 86.1427 122.165 89.9016 137.201C94.287 135.635 93.3473 131.876 93.9738 129.37C97.7327 116.214 101.178 103.058 104.311 89.588C105.877 83.3231 107.757 79.8774 115.588 79.8774C123.106 79.8774 124.359 83.3231 125.925 89.2748C129.997 105.563 134.382 121.539 140.334 137.514C143.78 123.732 146.912 109.636 150.358 95.8529C154.43 78.9377 154.43 78.9377 173.225 80.8172C165.707 107.443 157.876 133.756 150.358 160.381C148.165 167.586 142.84 164.453 138.455 165.08C133.756 166.02 131.25 164.14 129.997 159.442C125.611 143.153 120.913 127.491 115.901 110.575Z" fill="#F9F9F9"/>
<path d="M280.354 166.019C269.704 165.706 260.619 163.2 254.981 153.176C252.475 148.791 253.415 146.285 258.74 146.285C264.065 145.972 269.39 144.406 273.149 150.67C275.342 154.116 280.354 153.49 284.113 153.176C287.872 152.863 291.631 151.297 291.944 146.911C292.257 142.839 288.498 141.586 285.052 140.647C278.474 139.08 271.896 138.141 265.631 135.635C253.102 130.936 250.596 115.587 260.306 106.816C270.017 98.0453 292.257 98.0453 301.654 106.816C305.1 109.949 309.799 115.587 306.666 118.093C303.221 120.912 295.703 122.165 291.004 117.153C287.245 113.394 283.173 111.515 277.848 113.081C275.029 114.021 271.896 114.961 271.583 118.719C271.27 122.478 274.402 124.045 277.221 124.984C281.92 126.237 286.619 127.177 291.317 128.117C304.16 131.249 309.486 136.261 309.486 145.032C309.486 154.429 301.341 162.887 290.064 164.766C286.932 165.706 283.486 165.706 280.354 166.019Z" fill="#F9F9F9"/>
<path d="M236.814 165.393C223.031 165.393 216.766 159.442 216.453 145.972C216.14 137.828 216.453 129.683 216.453 121.539C216.453 117.78 216.766 114.021 211.128 114.334C206.743 114.334 207.682 110.889 207.996 108.383C207.996 105.877 206.429 101.805 210.815 102.118C218.019 102.118 216.766 97.4192 216.453 93.347C215.827 86.1424 220.525 86.4556 225.224 86.4556C229.923 86.4556 234.621 85.8292 233.995 93.0338C233.368 98.6722 234.308 102.744 241.513 101.805C246.838 101.178 245.898 105.25 246.211 108.383C246.525 112.455 245.585 114.961 240.886 114.334C234.935 113.395 233.682 116.84 233.995 121.852C234.308 127.804 233.995 134.069 233.995 140.02C233.995 145.972 233.368 151.297 242.453 151.924C246.838 152.237 246.838 158.189 246.525 161.634C244.958 167.273 239.633 164.454 236.814 165.393Z" fill="#F9F9F9"/>
<path d="M198.91 132.503C198.91 141.274 198.597 150.045 198.91 158.815C199.223 164.767 195.778 165.08 191.392 164.767C187.32 164.454 181.682 166.96 181.682 159.129C181.682 141.9 181.995 124.672 181.682 107.13C181.682 99.2989 187.007 101.805 191.079 101.492C195.778 100.865 199.223 101.492 198.91 107.757C198.284 116.214 198.91 124.358 198.91 132.503Z" fill="#F9F9F9"/>
<path d="M190.454 92.7206C184.816 92.4074 181.057 89.5882 181.37 83.6365C181.683 78.3114 185.129 75.4922 190.454 75.4922C196.093 75.4922 199.538 78.6246 199.538 84.263C199.225 90.2147 195.466 92.4074 190.454 92.7206Z" fill="#F9F9F9"/>
<path d="M161.322 283.799C150.358 283.486 139.081 280.667 133.443 267.824C132.19 265.318 129.684 261.245 133.13 259.992C136.575 259.053 141.587 256.547 144.72 262.812C150.045 272.835 164.767 275.968 174.791 270.016C178.863 267.51 181.683 263.751 181.683 259.053C181.683 253.728 178.237 250.595 173.852 249.029C167.273 246.836 160.382 244.957 153.804 243.077C139.395 238.692 132.503 230.234 133.443 218.957C134.696 207.367 145.033 198.596 159.129 197.344C171.972 196.404 183.562 198.91 190.454 211.126C191.706 213.319 194.526 217.391 191.08 218.957C187.948 220.524 183.249 221.463 179.803 217.078C173.538 208.62 165.707 205.801 155.997 208.62C150.671 210.187 146.599 213.006 145.66 218.957C144.72 225.222 148.479 228.981 153.804 230.861C160.695 233.367 167.587 234.933 174.478 237.439C188.574 242.137 194.212 249.655 193.273 261.559C192.959 275.341 181.369 283.799 161.322 283.799Z" fill="#1F70F5"/>
<path d="M407.219 274.403C399.701 282.86 391.557 284.74 382.473 283.173C373.389 281.607 367.75 275.656 366.811 266.885C365.871 257.174 369.63 251.222 379.34 248.403C385.292 246.524 391.87 245.897 398.135 244.958C402.207 244.331 407.219 244.331 406.906 238.379C406.593 233.054 403.46 229.295 397.822 228.356C392.183 227.416 386.858 228.356 382.786 232.741C381.22 234.307 379.967 236.813 376.834 236.187C374.329 235.56 370.57 236.5 369.63 233.368C368.69 231.175 371.196 228.982 372.762 227.103C379.34 219.272 394.063 216.139 405.653 220.211C415.364 223.657 419.122 229.922 419.122 243.391C419.122 254.042 419.122 264.692 419.122 275.342C419.122 278.788 420.062 282.547 414.111 282.86C408.785 283.173 405.966 281.607 407.219 274.403ZM389.991 274.089C395.003 274.403 399.075 272.836 402.521 269.704C406.906 265.632 408.472 259.68 406.279 254.668C404.4 249.343 399.701 254.981 395.942 254.355C393.436 253.728 390.617 254.981 387.798 255.608C382.473 256.861 377.461 259.054 378.087 265.632C379.027 272.21 384.352 273.776 389.991 274.089Z" fill="#1F70F5"/>
<path d="M234.306 283.486C216.451 283.486 204.861 270.956 204.861 251.535C204.861 231.801 217.078 218.331 234.62 218.331C252.161 218.331 264.065 231.488 264.065 250.595C264.065 270.643 252.161 283.486 234.306 283.486ZM217.078 251.222C216.765 255.294 217.704 259.68 219.584 264.065C222.403 270.017 227.102 273.462 233.68 273.776C240.884 274.089 245.896 270.643 248.716 264.065C252.788 254.981 252.474 245.897 248.089 236.813C245.27 231.174 240.571 228.355 233.993 228.355C227.728 228.355 223.029 231.174 219.897 236.813C217.704 240.885 216.765 245.584 217.078 251.222Z" fill="#1F70F5"/>
<path d="M286.307 250.596C285.993 256.547 287.246 262.186 290.692 266.884C296.957 275.655 308.86 275.655 315.438 267.198C316.065 266.571 316.378 265.631 316.691 265.005C319.824 261.246 324.209 261.559 327.342 263.439C330.161 265.318 327.655 268.764 326.402 271.583C320.45 282.233 304.788 286.932 291.945 281.607C276.909 275.655 270.018 256.234 275.969 238.066C280.981 222.717 295.391 215.199 311.366 219.271C317.944 220.837 323.896 224.283 326.715 230.861C327.968 233.367 331.101 236.813 327.342 238.692C324.522 239.945 319.51 241.198 317.318 237.439C312.619 229.295 306.354 226.163 297.583 229.608C288.186 233.367 286.307 241.825 286.307 250.596Z" fill="#1F70F5"/>
<path d="M434.471 239.319C434.471 227.416 434.784 215.826 434.471 203.922C434.471 199.224 435.724 197.344 440.423 197.657C444.808 197.657 447.001 198.91 447.001 203.609C446.687 227.729 446.687 252.162 447.001 276.282C447.001 280.98 445.434 282.547 440.736 282.547C436.037 282.547 434.158 281.294 434.471 276.282C434.784 264.065 434.471 251.849 434.471 239.319Z" fill="#1F70F5"/>
<path d="M353.966 250.596C353.966 259.367 353.653 268.137 353.966 276.908C354.28 282.233 351.46 282.86 347.388 282.86C343.003 282.86 341.437 281.607 341.437 277.221C341.75 259.68 341.75 242.138 341.437 224.596C341.437 219.898 343.629 219.271 347.701 219.271C351.147 219.271 354.28 219.271 353.966 224.283C353.653 233.054 353.653 241.825 353.966 250.596Z" fill="#1F70F5"/>
<path d="M355.221 201.73C354.281 206.115 352.088 208.621 347.389 208.621C342.691 208.308 339.872 205.802 340.185 201.416C340.185 197.344 343.317 194.838 347.389 194.838C351.775 194.525 354.594 197.031 355.221 201.73Z" fill="#1F70F5"/>
</g>
<defs>
<clipPath id="clip0_491_6404">
<rect width="447" height="283.8" fill="white"/>
</clipPath>
</defs>
</svg>
